<svg width="130" height="131" viewBox="0 0 130 131" fill="none" xmlns="http://www.w3.org/2000/svg">
<path d="M64.9326 123.253C53.4407 123.253 42.207 119.84 32.6518 113.446C23.0967 107.053 15.6494 97.9651 11.2517 87.3328C6.85391 76.7006 5.70326 65.0012 7.94521 53.714C10.1872 42.4269 15.721 32.059 23.847 23.9214C31.9729 15.7838 42.326 10.2421 53.5971 7.99691C64.8681 5.75176 76.5509 6.90406 87.1679 11.3081C97.785 15.7121 106.86 23.1701 113.244 32.7388C119.629 42.3076 123.036 53.5574 123.036 65.0657C123.011 80.4899 116.881 95.2751 105.99 106.182C95.0989 117.088 80.3348 123.227 64.9326 123.253Z" fill="url(#paint0_linear_3443_10840)"/>
<path d="M117.099 77.8601C124.168 49.0174 106.551 19.897 77.749 12.8179C48.9474 5.73878 19.8686 23.3817 12.7996 52.2244C5.73056 81.0671 23.3483 110.187 52.1498 117.267C80.9514 124.346 110.03 106.703 117.099 77.8601Z" fill="url(#paint1_linear_3443_10840)"/>
<path fill-rule="evenodd" clip-rule="evenodd" d="M49.3666 90C49.9641 90 50.4471 89.4918 50.4471 88.8656V54.8319C50.4471 53.9163 49.9253 53.129 49.1787 52.7717L48.2528 48.8839C48.1329 48.3791 47.7018 48.0252 47.2059 48.0252H45.7128L41.6894 39.5769C41.3221 38.8077 40.1239 38.8077 39.7566 39.5769L35.7343 48.0252H34.2412C33.7453 48.0252 33.3142 48.3791 33.1932 48.8839L32.2673 52.7717C31.5218 53.129 31 53.9163 31 54.8319V88.8656C31 89.4918 31.4829 90 32.0804 90H49.3666ZM38.5628 87.7311V82.0588H42.8843V87.7311H38.5628ZM48.2863 87.7311H45.0452V80.9244C45.0452 80.2982 44.5622 79.7899 43.9647 79.7899H37.4824C36.8849 79.7899 36.402 80.2982 36.402 80.9244V87.7311H33.1608V54.8319H48.2863V87.7311ZM40.7235 42.6206L43.297 48.0252H38.15L40.7235 42.6206ZM46.3621 50.294L46.9034 52.563H34.5448L35.086 50.294H46.3621ZM71.9735 69.5798H56.8481C55.6564 69.5798 54.6872 70.5974 54.6872 71.8487V88.8656C54.6872 89.4918 55.1702 90 55.7677 90H73.054C73.6514 90 74.1343 89.4918 74.1343 88.8656V71.8487C74.1343 70.5974 73.1652 69.5798 71.9735 69.5798ZM66.5716 87.731H62.25V85.4622H66.5716V87.731ZM71.9735 87.731H68.7324V84.3276C68.7324 83.7015 68.2494 83.1932 67.6519 83.1932H61.1696C60.5721 83.1932 60.0893 83.7015 60.0893 84.3276V87.731H56.8481V71.8487H71.9735V87.731ZM37.4824 57.1007H35.3216V59.3697H37.4824V57.1007ZM41.804 57.1007V59.3697H39.6431V57.1007H41.804ZM46.1255 57.1007H43.9647V59.3697H46.1255V57.1007ZM35.3216 61.6386H37.4824V63.9075H35.3216V61.6386ZM41.804 63.9075V61.6386H39.6431V63.9075H41.804ZM43.9647 61.6386H46.1255V63.9075H43.9647V61.6386ZM61.1696 74.1176H59.0088V76.3865H61.1696V74.1176ZM63.3304 74.1176H65.4912V76.3865H63.3304V74.1176ZM69.8128 74.1176H67.6519V76.3865H69.8128V74.1176ZM59.0088 78.6554H61.1696V80.9244H59.0088V78.6554ZM65.4912 78.6554H63.3304V80.9244H65.4912V78.6554ZM67.6519 78.6554H69.8128V80.9244H67.6519V78.6554ZM37.4824 66.1764H35.3216V68.4453H37.4824V66.1764ZM41.804 66.1764V68.4453H39.6431V66.1764H41.804ZM46.1255 66.1764H43.9647V68.4453H46.1255V66.1764ZM35.3216 70.7143H37.4824V72.9831H35.3216V70.7143ZM41.804 72.9831V70.7143H39.6431V72.9831H41.804ZM43.9647 70.7143H46.1255V72.9831H43.9647V70.7143ZM37.4824 75.252H35.3216V77.521H37.4824V75.252ZM41.804 75.252V77.521H39.6431V75.252H41.804ZM46.1255 75.252H43.9647V77.521H46.1255V75.252ZM82.7942 68.4453H84.9549V70.7143H82.7942V68.4453ZM89.2765 68.4453H87.1157V70.7143H89.2765V68.4453ZM91.4373 68.4453H93.5981V70.7143H91.4373V68.4453ZM84.9549 72.9831H82.7942V75.252H84.9549V72.9831ZM87.1157 72.9831H89.2765V75.252H87.1157V72.9831ZM93.5981 72.9831H91.4373V75.252H93.5981V72.9831ZM82.7942 77.521H84.9549V79.7899H82.7942V77.521ZM89.2765 77.521H87.1157V79.7899H89.2765V77.521ZM91.4373 77.521H93.5981V79.7899H91.4373V77.521ZM78.4726 59.3697H97.9196C98.5171 59.3697 99 59.8779 99 60.5041V65.0419C99 65.6682 98.5171 66.1764 97.9196 66.1764V88.8656C97.9196 89.4918 97.4367 90 96.8393 90H79.553C78.9555 90 78.4726 89.4918 78.4726 88.8656V66.1764C77.8751 66.1764 77.3921 65.6682 77.3921 65.0419V60.5041C77.3921 59.8779 77.8751 59.3697 78.4726 59.3697ZM96.8393 61.6386H79.553V63.9075H96.8393V61.6386ZM86.0353 87.731H90.3568V84.3276H86.0353V87.731ZM92.5177 87.731H95.7589V66.1764H80.6333V87.731H83.8745V83.1932C83.8745 82.567 84.3575 82.0588 84.9549 82.0588H91.4373C92.0347 82.0588 92.5177 82.567 92.5177 83.1932V87.731ZM64.3924 44.7298H64.334C63.178 44.7457 62.0965 45.2335 61.2894 46.1025C60.4813 46.9726 60.0459 48.1196 60.06 49.3335C60.074 50.5473 60.5386 51.6829 61.3672 52.5304C62.1818 53.3641 63.2515 53.8214 64.3858 53.8214H64.4442C65.6002 53.8054 66.6817 53.3188 67.4887 52.4486C68.2969 51.5786 68.7323 50.4316 68.7182 49.2177C68.7042 48.0039 68.2396 46.8683 67.411 46.0208C66.5963 45.187 65.5267 44.7298 64.3924 44.7298ZM65.9427 50.8649C65.5387 51.3006 64.9963 51.5445 64.4172 51.5524C63.8824 51.5388 63.2914 51.3312 62.8766 50.9069C62.4606 50.4815 62.2283 49.9143 62.2219 49.3051C62.2153 48.6958 62.4325 48.1218 62.8366 47.6862C63.2407 47.2506 63.783 47.0067 64.362 46.9987H64.3912C64.9585 46.9987 65.4943 47.2279 65.9016 47.6454C66.3176 48.0708 66.5499 48.6381 66.5563 49.2472C66.5629 49.8564 66.3468 50.4293 65.9427 50.8649ZM71.6751 42.259L73.8358 46.1888C74.1351 46.7311 73.9579 47.4253 73.4403 47.7385L71.8717 48.6892C71.8889 48.9035 71.8975 49.1157 71.8975 49.3278C71.8975 49.5399 71.89 49.7521 71.8717 49.9665L73.4403 50.9183C73.9568 51.2314 74.134 51.9258 73.8358 52.468L71.6751 56.3977C71.5324 56.6586 71.2958 56.8493 71.0192 56.9264C70.7437 57.0036 70.4466 56.9639 70.1992 56.813L68.6251 55.8589C68.3053 56.096 67.9261 56.3251 67.535 56.5169L67.576 58.4046C67.576 59.0308 67.0931 59.5391 66.4956 59.5391H62.174C61.5765 59.5391 61.0937 59.0308 61.0937 58.4046V56.4953C60.7425 56.3262 60.3633 56.0971 60.0079 55.8373L58.4694 56.8141C58.2198 56.965 57.9238 57.0046 57.6494 56.9276C57.3738 56.8493 57.1372 56.6586 56.9935 56.3988L54.8328 52.4691C54.5335 51.9269 54.7107 51.2325 55.2282 50.9194L56.798 49.9676C56.7807 49.7521 56.7721 49.5389 56.7721 49.329C56.7721 49.119 56.7807 48.9058 56.798 48.6914L55.2282 47.7396C54.7118 47.4265 54.5345 46.7322 54.8328 46.1899L56.9935 42.2602C57.1362 41.9992 57.3728 41.8087 57.6494 41.7315C57.9238 41.6532 58.2209 41.6941 58.4694 41.845L60.0435 42.799C60.3633 42.5619 60.7425 42.3328 61.1336 42.141L61.0937 40.2533C61.0937 39.6271 61.5765 39.1189 62.174 39.1189H66.4956C67.0931 39.1189 67.576 39.6271 67.576 40.2533V42.1626C67.9261 42.3316 68.3053 42.5608 68.6607 42.8206L70.1992 41.8438C70.4477 41.6929 70.7437 41.651 71.0192 41.7304C71.2948 41.8087 71.5314 41.9992 71.6751 42.259ZM69.7368 49.329C69.7368 48.9966 69.7065 48.6573 69.6417 48.2932C69.5585 47.8213 69.7692 47.3448 70.1647 47.1054L71.4233 46.3408L70.3429 44.3759L69.7044 44.7628C68.9827 45.1995 68.0881 45.1678 67.4247 44.6822C67.1719 44.4973 66.9019 44.3339 66.6231 44.1978C65.8885 43.8371 65.4152 43.0373 65.4152 42.1626V41.3878H63.2544V42.1615C63.2544 43.0373 62.7812 43.8348 62.0477 44.1955C61.7667 44.3328 61.4966 44.4962 61.2428 44.6822C60.5805 45.1678 59.6858 45.1995 58.9642 44.7628L58.3257 44.3759L57.2453 46.3408L58.505 47.1054C58.9004 47.3459 59.11 47.8213 59.0269 48.2932C58.9631 48.6529 58.9328 48.992 58.9328 49.329C58.9328 49.6659 58.9631 50.0051 59.0269 50.3648C59.1111 50.8367 58.9004 51.3131 58.505 51.5525L57.2453 52.3171L58.3257 54.282L58.9642 53.8952C59.687 53.4583 60.5805 53.489 61.2438 53.9757C61.4966 54.1606 61.7667 54.3239 62.0455 54.4601C62.7812 54.822 63.2544 55.6207 63.2544 56.4953V57.2701H65.4152V56.4964C65.4152 55.6207 65.8885 54.822 66.6209 54.4624C66.9019 54.3251 67.1719 54.1617 67.4258 53.9757C68.0881 53.4902 68.9827 53.4583 69.7044 53.8952L70.3429 54.282L71.4233 52.3171L70.1635 51.5525C69.7682 51.312 69.5585 50.8367 69.6417 50.3648C69.7065 50.0005 69.7368 49.6614 69.7368 49.329Z" fill="url(#paint2_linear_3443_10840)"/>
<defs>
<linearGradient id="paint0_linear_3443_10840" x1="23.8403" y1="23.85" x2="106.158" y2="106.051" gradientUnits="userSpaceOnUse">
<stop stop-color="#FCFCFC"/>
<stop offset="1" stop-color="#E6E6E6"/>
</linearGradient>
<linearGradient id="paint1_linear_3443_10840" x1="101.217" y1="101.331" x2="4.19025" y2="4.45911" gradientUnits="userSpaceOnUse">
<stop stop-color="#FCFCFC"/>
<stop offset="1" stop-color="#E6E6E6"/>
</linearGradient>
<linearGradient id="paint2_linear_3443_10840" x1="30.0869" y1="41.099" x2="105.324" y2="54.2512" gradientUnits="userSpaceOnUse">
<stop stop-color="#6A00A7"/>
<stop offset="1" stop-color="#00CDCD"/>
</linearGradient>
</defs>
</svg>
