<svg width="130" height="131" viewBox="0 0 130 131" fill="none" xmlns="http://www.w3.org/2000/svg">
<path d="M64.9326 123.253C53.4407 123.253 42.207 119.84 32.6518 113.446C23.0967 107.053 15.6494 97.9651 11.2517 87.3328C6.85391 76.7006 5.70326 65.0012 7.94521 53.714C10.1872 42.4269 15.721 32.059 23.847 23.9214C31.9729 15.7838 42.326 10.2421 53.5971 7.99693C64.8681 5.75178 76.5509 6.90407 87.1679 11.3081C97.785 15.7121 106.86 23.1701 113.244 32.7388C119.629 42.3076 123.036 53.5574 123.036 65.0657C123.011 80.4899 116.881 95.2751 105.99 106.182C95.0989 117.088 80.3348 123.227 64.9326 123.253Z" fill="url(#paint0_linear_3443_10837)"/>
<path d="M117.099 77.86C124.168 49.0173 106.551 19.897 77.749 12.8179C48.9474 5.73875 19.8686 23.3816 12.7996 52.2243C5.73056 81.067 23.3483 110.187 52.1498 117.266C80.9514 124.346 110.03 106.703 117.099 77.86Z" fill="url(#paint1_linear_3443_10837)"/>
<path fill-rule="evenodd" clip-rule="evenodd" d="M59.9253 41H59.3718C57.6317 41.9049 55.8917 42.8097 54.1385 43.6863L54.1296 43.6908L54.1293 43.6909C48.3323 46.6301 42.5352 49.5693 36.7382 52.4944C36.224 52.7489 36 53.1164 36 53.7244V88.688C36 89.607 36.3164 89.9181 37.1996 89.9181H82.0711C82.6249 89.9181 83.0203 89.7342 83.2839 89.2394V76.1582H94.36V41.6801H76.4881L72.6036 46.0489L71.7234 47.0121C67.8271 45.0364 63.9289 43.0606 60.0309 41.0849C59.9913 41.0566 59.9253 41 59.9253 41ZM70.4013 48.4588C66.9468 46.7065 63.4937 44.9507 60.044 43.1914C59.9253 43.1208 59.7804 43.0784 59.6354 43.0784C59.4904 43.0784 59.3585 43.1208 59.2267 43.1914C52.2403 46.7543 45.2407 50.3029 38.241 53.8375C37.9377 53.993 37.8323 54.1627 37.8323 54.5161V87.4721V87.9811H39.691H39.7174V56.7641C39.7174 55.6472 39.981 55.3786 41.0487 55.3786H68.633V50.3938L70.4013 48.4588ZM68.633 57.3155H41.6023V59.1676H68.633V57.3155ZM68.633 61.2035H41.6023V87.9952H44.832L44.8188 87.9811V76.8261C44.8188 75.8506 45.122 75.5396 46.0579 75.5254H51.7921V64.3138C51.7921 63.3666 52.082 63.0697 53.0048 63.0697H66.2528C67.2678 63.0697 67.5182 63.3383 67.5182 64.4128V75.5395H68.633V61.2035ZM74.4085 76.1582C74.4673 76.346 74.4915 76.5842 74.4915 76.8827V87.9811H77.7211V76.1582H74.4085ZM79.593 76.1582V87.967H81.4384V87.5287V76.1582H79.593ZM55.9444 77.4623V81.1241C55.9444 81.831 55.5885 82.2128 54.9425 82.2269C53.453 82.241 51.9634 82.241 50.4607 82.2269C49.8148 82.2269 49.472 81.8593 49.4588 81.1807V77.9855C49.4588 77.8158 49.4457 77.6461 49.4325 77.4765H46.6774V87.9811H58.6862V77.4623H55.9444ZM72.6197 87.9528H60.5977V77.4482H63.3659V80.9121C63.3659 81.9017 63.6691 82.2269 64.6314 82.2269H68.6914C69.5219 82.2269 69.8515 81.9017 69.8515 81.0534V77.4623H72.6197V87.9528ZM62.8913 64.9925H65.6595V75.483H53.6639V64.9925H56.419V65.4308V68.6825C56.419 69.3894 56.7748 69.7429 57.4472 69.7429H61.8368C62.5618 69.7287 62.8913 69.3753 62.8913 68.6119V64.9925ZM51.3439 77.4765H54.0726V80.2758H51.3439V77.4765ZM67.9796 77.4765V80.29V80.3041H65.251V77.4765H67.9796ZM61.0195 64.9783V67.806H58.304V64.9783H61.0195ZM73.7795 47.6598L76.6453 44.4359V50.5363H71.0588L73.7795 47.6598ZM78.2378 52.2443H70.2255V74.4503H92.7675V43.3881H78.2378V52.2443ZM76.4028 67.3724H85.105V62.757H87.2805V69.6801H74.2273V54.6801H79.6661V56.9878H76.4028V67.3724ZM81.1074 61.2694L79.6026 59.7101L77.9568 61.4154L81.1074 64.6801L90.0776 55.3855L88.432 53.6801L81.1074 61.2694Z" fill="url(#paint2_linear_3443_10837)"/>
<defs>
<linearGradient id="paint0_linear_3443_10837" x1="23.8403" y1="23.85" x2="106.158" y2="106.051" gradientUnits="userSpaceOnUse">
<stop stop-color="#FCFCFC"/>
<stop offset="1" stop-color="#E6E6E6"/>
</linearGradient>
<linearGradient id="paint1_linear_3443_10837" x1="101.217" y1="101.331" x2="4.19025" y2="4.45908" gradientUnits="userSpaceOnUse">
<stop stop-color="#FCFCFC"/>
<stop offset="1" stop-color="#E6E6E6"/>
</linearGradient>
<linearGradient id="paint2_linear_3443_10837" x1="35.2163" y1="43.0133" x2="100.172" y2="53.1732" gradientUnits="userSpaceOnUse">
<stop stop-color="#6A00A7"/>
<stop offset="1" stop-color="#00CDCD"/>
</linearGradient>
</defs>
</svg>
