<svg width="130" height="131" viewBox="0 0 130 131" fill="none" xmlns="http://www.w3.org/2000/svg">
<path d="M64.9326 123.253C53.4407 123.253 42.207 119.84 32.6518 113.446C23.0967 107.053 15.6494 97.9651 11.2517 87.3328C6.85391 76.7006 5.70326 65.0012 7.94521 53.714C10.1872 42.4269 15.721 32.059 23.847 23.9214C31.9729 15.7838 42.326 10.2421 53.5971 7.99691C64.8681 5.75176 76.5509 6.90406 87.1679 11.3081C97.785 15.7121 106.86 23.1701 113.244 32.7388C119.629 42.3076 123.036 53.5574 123.036 65.0657C123.011 80.4899 116.881 95.2751 105.99 106.182C95.0989 117.088 80.3348 123.227 64.9326 123.253Z" fill="url(#paint0_linear_3443_10838)"/>
<path d="M117.099 77.86C124.168 49.0173 106.551 19.897 77.749 12.8179C48.9474 5.73875 19.8686 23.3816 12.7996 52.2243C5.73056 81.067 23.3483 110.187 52.1498 117.266C80.9514 124.346 110.03 106.703 117.099 77.86Z" fill="url(#paint1_linear_3443_10838)"/>
<path opacity="0.8" fill-rule="evenodd" clip-rule="evenodd" d="M89.733 54.623C89.3403 54.5892 88.9304 54.5892 88.5374 54.623L88.5716 54.6061C88.5716 54.1974 88.5675 53.8024 88.5637 53.4157C88.5562 52.6665 88.5491 51.9488 88.5716 51.2238C88.5716 51.0762 88.7146 50.9028 88.8416 50.7487C88.8608 50.7262 88.879 50.7041 88.8961 50.6826C89.5957 49.8878 90.1256 49.0083 90.3134 47.9598C90.3295 47.8672 90.3487 47.7742 90.3679 47.6808C90.4688 47.1938 90.5708 46.6949 90.3134 46.1841C88.6911 42.9708 87.0861 39.7407 85.4981 36.5105C85.3273 36.1723 85.1224 36.0032 84.7127 36.0032H45.7308C45.5601 35.9863 45.3893 36.037 45.2527 36.1216C45.1161 36.223 44.9966 36.3583 44.9453 36.5105C44.1428 38.1341 43.336 39.7533 42.5293 41.3726C41.7224 42.9919 40.9157 44.6113 40.1132 46.2348C40.0107 46.4208 39.9594 46.6407 39.9594 46.8605C40.0107 48.3149 40.6083 49.7186 41.6157 50.7671C41.7523 50.8686 41.8377 51.0039 41.8718 51.1561V54.5892C41.5987 54.5723 41.3254 54.5723 41.0523 54.5892C40.9295 54.6158 40.8041 54.6399 40.6781 54.664C40.2433 54.7474 39.8009 54.8322 39.4302 55.0289C38.3203 55.6208 37.9788 56.6524 37.9788 57.8532V88.8017C37.7955 88.8017 37.6225 88.8037 37.4561 88.8057C37.1421 88.8094 36.8519 88.8128 36.5615 88.8017C36.1689 88.7848 36.0152 88.9201 36.0152 89.326C36.0152 89.5803 36.0114 89.8346 36.0076 90.0883C36 90.5937 35.9924 91.0967 36.0152 91.5921C36.0494 92.4715 36.3567 93.2833 37.0397 93.8583C37.7056 94.4333 38.5082 94.5855 39.3619 94.5855H91.2865C92.9258 94.5517 94.0352 93.6554 94.2745 92.0319C94.3774 91.3335 94.3643 90.6065 94.3512 89.8867C94.3471 89.6478 94.3431 89.4097 94.3431 89.1738C94.3431 89.0554 94.0695 88.8355 93.9161 88.8355C93.6123 88.8132 93.2933 88.8203 92.9602 88.8278C92.7875 88.8316 92.6109 88.8355 92.4302 88.8355V57.8193C92.4302 56.0098 91.4743 54.8767 89.733 54.623ZM43.7501 84.8951V52.2047L43.7672 52.2216C46.5503 52.9826 48.8042 52.2216 50.5971 49.8878C51.8094 51.562 53.4315 52.526 55.4464 52.526C57.4783 52.526 59.1004 51.5958 60.3468 49.8708C61.5933 51.5958 63.2496 52.5091 65.2473 52.5091C67.2451 52.4921 68.8672 51.5789 70.0795 49.8539C71.3089 51.5789 72.9651 52.5091 74.9629 52.5091C76.9606 52.5091 78.5828 51.5958 79.795 49.8708C81.5709 52.2046 83.8248 52.9995 86.6421 52.2047V84.8951H43.7501ZM90.5859 88.8186H39.8058V87.9561C39.8058 85.478 39.8069 83.001 39.8079 80.5244C39.8112 73.097 39.8144 65.6743 39.7887 58.2421C39.7717 56.4664 40.3352 56.3649 41.8548 56.5341V86.0113C41.8548 86.5412 42.1223 86.8061 42.6573 86.8061H87.7349C88.2699 86.8061 88.5374 86.5412 88.5374 86.0113V56.4833C88.9304 56.4495 89.3403 56.4664 89.733 56.4833C89.955 56.4833 90.1599 56.5848 90.3134 56.737C90.4668 56.8892 90.5698 57.0922 90.5859 57.312V57.9208V88.8186ZM37.8593 90.7465H92.5332V90.7635V91.7444C92.516 92.387 92.1576 92.7422 91.5086 92.776H39.1912C38.3544 92.776 37.9275 92.5054 37.8593 91.9304C37.8368 91.6741 37.8439 91.4251 37.8514 91.1642C37.8553 91.0291 37.8593 90.8908 37.8593 90.7465ZM61.999 38.8261C62.035 38.5268 62.0717 38.2232 62.1055 37.9142V37.8973H68.2525C68.3378 38.5569 68.4232 39.2164 68.4916 39.876C68.5598 40.5637 68.6262 41.2514 68.6926 41.9391C68.8255 43.3147 68.9582 44.6902 69.1062 46.0657C69.4477 49.1436 67.2792 50.6995 65.3498 50.801C62.7544 50.9363 60.8933 48.6363 61.2518 45.9135C61.4142 44.7017 61.5286 43.4831 61.6428 42.2664C61.7086 41.5643 61.7744 40.8628 61.8494 40.1635C61.8906 39.7251 61.9442 39.2805 61.999 38.8261ZM60.2583 37.8804C58.251 37.8804 56.3622 37.8804 54.4901 37.8973C54.3024 37.8973 54.0462 38.2186 53.9779 38.4216C53.1584 41.0767 52.3729 43.7488 51.5875 46.4208C51.485 46.7591 51.4679 47.0973 51.5021 47.4355C51.7582 49.3635 53.6364 50.9025 55.6 50.7841C56.5733 50.7333 57.5124 50.3105 58.1954 49.6172C58.8955 48.9238 59.3224 47.9936 59.3735 47.0127C59.4567 45.7421 59.5977 44.4797 59.7391 43.214C59.8009 42.6604 59.8628 42.1061 59.9199 41.5502C59.995 40.7957 60.0634 40.0346 60.1335 39.2541C60.174 38.8035 60.2151 38.3463 60.2583 37.8804ZM70.421 41.6179C70.3015 40.4172 70.182 39.1995 70.0625 37.8804V37.8635H74.6044C75.6857 37.8635 76.3801 38.3821 76.6875 39.4194C76.8778 40.0591 77.0607 40.7017 77.2436 41.3443C77.6844 42.893 78.1251 44.4413 78.6681 45.9473C79.2658 47.6047 78.2071 49.4311 77.0119 50.1414C75.7142 50.9024 74.3653 50.9701 73.0676 50.2767C71.7699 49.5833 71.0527 48.4672 70.9503 46.9451C70.841 45.5246 70.688 44.104 70.5351 42.6835C70.4968 42.3283 70.4586 41.9731 70.421 41.6179ZM78.3096 38.6245C78.2413 38.4047 78.19 38.2017 78.1218 37.8804L78.1046 37.8635H83.8248C83.9272 37.8973 84.0297 37.9311 84.115 37.9988C84.2004 38.0664 84.2687 38.151 84.3199 38.2355C85.7372 41.0429 87.1202 43.8502 88.5032 46.6576C88.6057 46.9282 88.6398 47.2157 88.5886 47.4863C88.2642 49.1775 86.7616 50.9025 84.2174 50.6995C82.4588 50.5642 80.9391 48.9407 80.7171 47.0466C80.6308 46.3378 80.4106 45.6466 80.1921 44.9604C80.1082 44.697 80.0245 44.4343 79.9488 44.1716C79.6755 43.2499 79.4024 42.324 79.1291 41.398C78.856 40.4721 78.5828 39.5462 78.3096 38.6245ZM52.2501 37.8804H52.2534H52.2705C51.8777 39.2333 51.5191 40.451 51.1606 41.6686C50.7337 43.0554 50.3068 44.4591 49.897 45.8627C49.7775 46.3363 49.6921 46.8098 49.641 47.3003C49.4531 49.1267 47.7115 50.6319 45.8503 50.7164C44.8771 50.7502 43.9208 50.4289 43.1696 49.8201C42.4183 49.1944 41.906 48.3319 41.7523 47.3679C41.7182 47.0973 41.7694 46.8098 41.906 46.5561L41.9065 46.5552C43.2552 43.8158 44.604 41.0764 45.9869 38.3539C46.0723 38.151 46.2942 37.8973 46.465 37.8973C48.3422 37.8804 50.2365 37.8804 52.2501 37.8804ZM81.9968 60.4915C81.9975 60.4858 81.9982 60.4802 81.999 60.4746L82.0331 60.4915H81.9968ZM81.3672 65.2775C81.5714 63.71 81.7756 62.1426 81.9968 60.4915H81.2135C72.5452 60.4577 63.8939 60.4745 55.2256 60.4914L55.2086 60.4915C54.5767 60.4915 54.389 60.2716 54.2865 59.6966C54.1841 59.0962 54.0602 58.5001 53.9364 57.904C53.8127 57.3078 53.6888 56.7117 53.5865 56.1113C53.5011 55.6885 53.3303 55.5871 52.9376 55.5871H50.2056C49.4671 55.6037 49.1492 55.5263 49.013 55.6482C48.8721 55.7743 48.9253 56.1136 48.9079 56.9907C48.9079 57.3459 49.0616 57.4474 49.3861 57.4474C49.6217 57.4409 49.8599 57.4468 50.0996 57.4528C50.4851 57.4624 50.8747 57.4721 51.2642 57.4304C51.8961 57.3797 52.0668 57.6503 52.1863 58.2253C52.7558 61.1265 53.3332 64.0277 53.9108 66.9307C54.5454 70.1197 55.1805 73.311 55.8062 76.5069C55.8915 76.9297 56.0794 77.0143 56.455 77.0143H59.4944C59.6149 77.0143 59.7354 77.0282 59.8604 77.0426C59.9302 77.0507 60.0014 77.0589 60.0749 77.065C58.5381 77.5893 57.5477 78.7731 57.6502 80.0584C57.7697 81.6143 58.8455 82.6966 60.3822 82.8488C61.5775 82.9672 62.9093 82.0201 63.2338 80.8025C63.3533 80.3966 63.3874 79.9738 63.3191 79.5679C63.2679 79.162 63.1141 78.7731 62.8751 78.4179C62.397 77.6907 61.697 77.3356 60.8945 77.0819H74.6397C73.0006 77.7246 72.0784 78.9253 72.2834 80.2275C72.5395 81.8341 73.6152 82.8488 75.0666 82.8826C76.3301 82.9165 77.5936 81.9018 77.8497 80.6672C77.9522 80.2782 77.9522 79.8724 77.884 79.4834C77.8156 79.0775 77.662 78.7054 77.44 78.3841C76.9619 77.6738 76.2618 77.3018 75.4422 77.0988C75.6812 77.0481 75.9374 77.0143 76.1765 77.0143C76.506 77.0143 76.8373 77.0124 77.1693 77.0105C77.8352 77.0067 78.5037 77.003 79.1645 77.0143C79.5914 77.0143 79.8305 76.9466 79.8817 76.4393C79.9853 75.4814 80.12 74.5312 80.2542 73.5835C80.3192 73.1257 80.384 72.6685 80.4451 72.2113C80.7518 69.9168 81.0584 67.6054 81.365 65.294L81.3672 65.2775ZM54.9012 62.9606C54.8671 62.7576 54.85 62.5716 54.85 62.3687H54.8671H79.9329C79.8927 62.6945 79.855 63.0126 79.8179 63.3258C79.7606 63.8092 79.7048 64.2812 79.6426 64.7532C79.3011 67.4084 78.9426 70.0635 78.584 72.7187C78.4986 73.3613 78.4132 74.004 78.345 74.6466C78.2937 75.0863 78.0547 75.154 77.679 75.154H70.3198C68.9538 75.154 67.5878 75.1502 66.2218 75.1464C63.4899 75.1389 60.7579 75.1314 58.0259 75.154C57.4795 75.1709 57.2916 74.9679 57.1892 74.4775C56.438 70.6388 55.6695 66.7993 54.9012 62.9606ZM59.6309 80.515C59.5285 80.3459 59.4944 80.1429 59.4944 79.94L59.4772 79.9738C59.4772 79.8216 59.5114 79.6863 59.5626 79.5679C59.6139 79.4326 59.6992 79.3143 59.8016 79.2297C59.9041 79.1451 60.0236 79.0775 60.1602 79.0268C60.2969 78.976 60.4335 78.976 60.57 78.976C60.7749 78.9929 60.9628 79.0606 61.1335 79.179C61.3043 79.2973 61.4238 79.4665 61.4921 79.6525C61.5604 79.8385 61.5775 80.0415 61.5263 80.2444C61.475 80.4304 61.3725 80.6165 61.2189 80.7518C61.0652 80.8871 60.8774 80.9716 60.6725 81.0054C60.4676 81.0393 60.2627 81.0054 60.0749 80.9209C59.887 80.8363 59.7334 80.6841 59.6309 80.515ZM76.0057 79.4496C76.1081 79.6187 76.1593 79.8216 76.1593 80.0245H76.1423C76.1593 80.1598 76.1252 80.2951 76.074 80.4304C76.0227 80.5657 75.9545 80.6672 75.8521 80.7687C75.7496 80.8701 75.6471 80.9378 75.5106 80.9885C75.374 81.0393 75.2374 81.0393 75.1008 81.0393C74.8959 81.0393 74.708 80.9716 74.5372 80.8532C74.3836 80.7348 74.247 80.5657 74.1787 80.3797C74.1104 80.1937 74.0933 79.9907 74.1446 79.7878C74.1787 79.5848 74.2811 79.3988 74.4348 79.2635C74.5714 79.1282 74.7592 79.0268 74.9641 78.9929C75.1691 78.9591 75.374 78.976 75.5617 79.0606C75.7496 79.1452 75.9032 79.2804 76.0057 79.4496Z" fill="url(#paint2_linear_3443_10838)"/>
<defs>
<linearGradient id="paint0_linear_3443_10838" x1="23.8403" y1="23.85" x2="106.158" y2="106.051" gradientUnits="userSpaceOnUse">
<stop stop-color="#FCFCFC"/>
<stop offset="1" stop-color="#E6E6E6"/>
</linearGradient>
<linearGradient id="paint1_linear_3443_10838" x1="101.217" y1="101.331" x2="4.19025" y2="4.45908" gradientUnits="userSpaceOnUse">
<stop stop-color="#FCFCFC"/>
<stop offset="1" stop-color="#E6E6E6"/>
</linearGradient>
<linearGradient id="paint2_linear_3443_10838" x1="35.2163" y1="38.4112" x2="100.645" y2="46.9563" gradientUnits="userSpaceOnUse">
<stop stop-color="#6A00A7"/>
<stop offset="1" stop-color="#00CDCD"/>
</linearGradient>
</defs>
</svg>
