<svg width="130" height="131" viewBox="0 0 130 131" fill="none" xmlns="http://www.w3.org/2000/svg">
<path d="M64.9326 123.253C53.4407 123.253 42.207 119.84 32.6518 113.446C23.0967 107.053 15.6494 97.9651 11.2517 87.3328C6.85391 76.7006 5.70326 65.0012 7.94521 53.714C10.1872 42.4269 15.721 32.059 23.847 23.9214C31.9729 15.7838 42.326 10.2421 53.5971 7.99691C64.8681 5.75176 76.5509 6.90406 87.1679 11.3081C97.785 15.7121 106.86 23.1701 113.244 32.7388C119.629 42.3076 123.036 53.5574 123.036 65.0657C123.011 80.4899 116.881 95.2751 105.99 106.182C95.0989 117.088 80.3348 123.227 64.9326 123.253Z" fill="url(#paint0_linear_3443_10839)"/>
<path d="M117.099 77.8601C124.168 49.0174 106.551 19.897 77.749 12.8179C48.9474 5.73878 19.8686 23.3817 12.7996 52.2244C5.73056 81.0671 23.3483 110.187 52.1498 117.267C80.9514 124.346 110.03 106.703 117.099 77.8601Z" fill="url(#paint1_linear_3443_10839)"/>
<path d="M93.0544 61.2684C92.2236 61.3022 91.3928 61.2684 90.4773 61.2684V50.4787C90.4773 49.4301 90.172 49.1257 89.1038 49.1257C88.324 49.1257 87.544 49.1257 86.764 49.1257C86.6963 49.1257 86.6454 49.0919 86.5945 49.0581V48.4492C86.5945 45.0838 86.5945 41.7015 86.5945 38.336C86.5945 37.761 86.4588 37.3044 85.9332 37H36.6953C36.1528 37.2875 36.0002 37.7441 36.0002 38.3191C36.0002 46.6566 36.051 54.9941 36.0002 63.3485C35.9832 65.936 37.2718 67.9823 39.8999 68.6588V70.3331C39.9168 72.4978 39.8321 74.6794 40.0016 76.8272C40.1542 78.7382 41.4089 80.0066 43.2909 80.6154C43.6979 80.7507 43.7826 80.9198 43.7826 81.3088C43.7826 83.5411 43.7826 85.7904 43.7826 88.0228C43.7826 89.6801 44.3591 91.1345 45.8173 92.0647C46.4955 92.5044 47.3262 92.6904 48.0893 92.9948H90.0195C91.3589 92.7411 92.5797 92.2507 93.3427 91.1176C93.8005 90.4242 94.0209 89.6125 94.36 88.8514V61.9448C94.0717 61.4544 93.6479 61.2514 93.0544 61.2684ZM92.3931 63.1794V83.6426H90.0025C90.9859 80.4294 90.4094 77.5544 88.0526 75.1022C87.2558 74.2566 86.2894 73.597 85.2042 73.1404C84.1191 72.6838 82.9492 72.4639 81.7623 72.4809C78.7781 72.4809 76.3367 73.6985 74.6072 76.0154C72.8778 78.3323 72.5725 80.9029 73.4541 83.6426H45.7833V63.1794H92.3931ZM88.5274 80.7676C88.5952 84.3529 85.5263 87.3632 81.7623 87.4139C78.0661 87.4647 74.9802 84.522 74.9124 80.9029C74.8445 77.3853 77.8965 74.4257 81.6436 74.3411C85.3059 74.2566 88.4427 77.1823 88.5274 80.7676ZM39.8659 66.697C38.73 66.2066 38.0687 65.4456 37.984 64.3463C37.8992 63.3654 37.984 62.3507 37.984 61.3191H39.8829V66.697H39.8659ZM39.8999 50.6309V59.3912H37.984V38.911H84.5768V49.1426H83.9156C76.7775 49.1426 69.6393 49.1426 62.5011 49.1426C61.9247 49.1426 61.4838 49.0242 61.1278 48.5845C60.8904 48.3478 60.6531 48.1279 60.3817 47.925C60.5683 47.4684 60.8565 47.2654 61.2804 47.2654C61.7212 47.2654 62.0095 47.4853 62.2129 47.8742C62.2468 47.9419 62.2977 48.0095 62.3655 48.0603C62.4334 48.111 62.5011 48.1448 62.5859 48.1617C63.0945 48.1956 63.6032 48.1617 64.1966 48.1617C64.1966 47.1639 63.7897 46.3691 62.942 45.8956C62.4164 45.5912 62.162 45.2699 62.2638 44.6949C62.2638 44.6103 62.2468 44.5257 62.2129 44.4581H60.4156C60.4156 44.4581 60.3479 44.5257 60.3479 44.5596C60.4496 45.2529 60.1614 45.6588 59.517 46.014C58.8219 46.4029 58.4489 47.1132 58.4319 47.9081C58.4319 48.297 58.6184 48.686 58.7201 49.1088H41.4767C40.1542 49.1088 39.8999 49.3456 39.8999 50.597V50.6309ZM43.7487 78.8228C42.5788 78.3323 41.9515 77.5375 41.8667 76.3875C41.7989 75.4235 41.8667 74.4595 41.8667 73.4617H43.7657V78.8228H43.7487ZM43.7826 62.6889V71.5169H41.8836V51.0367H88.4935V61.2684H87.8323C80.7111 61.2684 73.5898 61.2684 66.4686 61.2684C65.8243 61.2684 65.3496 61.1331 64.9427 60.6595C64.7392 60.4397 64.5188 60.2537 64.2645 60.0845C64.4171 59.6279 64.7223 59.3742 65.1123 59.4419C65.4344 59.4926 65.8583 59.7125 66.0109 59.9662C66.1805 60.2706 66.35 60.3382 66.6552 60.3213C67.113 60.3213 67.5538 60.3213 68.0624 60.3213C68.0455 59.3066 67.6386 58.5117 66.7739 58.0551C66.2483 57.7676 66.0448 57.4463 66.1296 56.9051C66.1296 56.8037 66.1126 56.7191 66.0787 56.6176H64.1628C64.451 57.5139 63.8067 57.8353 63.2302 58.3088C62.7894 58.6978 62.4841 59.2051 62.3316 59.7632C62.2129 60.2198 62.4163 60.7441 62.4841 61.2684H45.1729C44.02 61.2684 43.7317 61.5389 43.7317 62.672L43.7826 62.6889ZM92.3762 88.6823C92.2576 89.9845 91.2233 90.9485 89.8499 91.1176C89.6634 91.1345 89.4768 91.1514 89.2904 91.1514H48.9031C47.1059 91.1514 45.919 90.1536 45.7664 88.4794C45.6816 87.5492 45.7664 86.5853 45.7664 85.5875C45.9867 85.5875 46.1902 85.5537 46.3937 85.5537C55.5665 85.5537 64.7393 85.5537 73.912 85.5537C74.0816 85.5537 74.268 85.5705 74.4207 85.6382C74.5733 85.7058 74.709 85.8242 74.8106 85.9595C75.6245 86.9911 76.6588 87.8198 77.8626 88.3948C79.0663 88.9698 80.3889 89.2742 81.7284 89.2742C83.0678 89.2742 84.3903 88.9698 85.5942 88.3948C86.7979 87.8198 87.8492 86.9911 88.6461 85.9595C88.7478 85.8242 88.8835 85.7058 89.036 85.6382C89.1886 85.5705 89.3752 85.5367 89.5448 85.5537C90.4773 85.5875 91.4098 85.5537 92.3931 85.5537C92.3931 86.636 92.461 87.6676 92.3931 88.6654L92.3762 88.6823Z" fill="url(#paint2_linear_3443_10839)"/>
<path d="M83.7349 76.5735H80.5378V79.3301H77.6484V82.4249H80.5549V85.1646H83.7691V82.3911H86.6414V79.3301H83.7349V76.5735Z" fill="url(#paint3_linear_3443_10839)"/>
<path d="M65.3734 77.3176C64.3134 77.3176 63.356 76.9793 62.6721 76.6073L62.1934 78.4845C62.8089 78.8227 63.8689 79.1271 64.9631 79.1779V80.7168H66.5702V79.0595C68.4338 78.7381 69.4596 77.5205 69.4596 76.0999C69.4596 74.6793 68.6903 73.7492 66.7412 73.0727C65.3564 72.5654 64.7921 72.2271 64.7921 71.7029C64.7921 71.2462 65.1341 70.7896 66.1941 70.7896C67.3567 70.7896 68.1261 71.1617 68.5364 71.3477L69.0151 69.5212C68.468 69.2676 67.7328 69.0308 66.6557 68.997V67.5764H65.0486V69.1154C63.3048 69.4536 62.296 70.5698 62.296 71.9904C62.296 73.5462 63.4757 74.358 65.2196 74.933C66.4335 75.3389 66.9464 75.7109 66.9464 76.3367C66.9464 76.9624 66.3138 77.3345 65.3734 77.3345V77.3176Z" fill="url(#paint4_linear_3443_10839)"/>
<defs>
<linearGradient id="paint0_linear_3443_10839" x1="23.8403" y1="23.85" x2="106.158" y2="106.051" gradientUnits="userSpaceOnUse">
<stop stop-color="#FCFCFC"/>
<stop offset="1" stop-color="#E6E6E6"/>
</linearGradient>
<linearGradient id="paint1_linear_3443_10839" x1="101.217" y1="101.331" x2="4.19025" y2="4.45911" gradientUnits="userSpaceOnUse">
<stop stop-color="#FCFCFC"/>
<stop offset="1" stop-color="#E6E6E6"/>
</linearGradient>
<linearGradient id="paint2_linear_3443_10839" x1="35.2163" y1="39.3045" x2="100.541" y2="48.2309" gradientUnits="userSpaceOnUse">
<stop stop-color="#6A00A7"/>
<stop offset="1" stop-color="#00CDCD"/>
</linearGradient>
<linearGradient id="paint3_linear_3443_10839" x1="77.5277" y1="76.9271" x2="87.5923" y2="78.3083" gradientUnits="userSpaceOnUse">
<stop stop-color="#6A00A7"/>
<stop offset="1" stop-color="#00CDCD"/>
</linearGradient>
<linearGradient id="paint4_linear_3443_10839" x1="62.0958" y1="68.1172" x2="70.3377" y2="68.7148" gradientUnits="userSpaceOnUse">
<stop stop-color="#6A00A7"/>
<stop offset="1" stop-color="#00CDCD"/>
</linearGradient>
</defs>
</svg>
