<svg width="130" height="131" viewBox="0 0 130 131" fill="none" xmlns="http://www.w3.org/2000/svg">
<path d="M64.9326 123.253C53.4407 123.253 42.207 119.84 32.6518 113.446C23.0967 107.053 15.6494 97.9651 11.2517 87.3328C6.85391 76.7006 5.70326 65.0012 7.94521 53.714C10.1872 42.4269 15.721 32.059 23.847 23.9214C31.9729 15.7838 42.326 10.2421 53.5971 7.99691C64.8681 5.75176 76.5509 6.90406 87.1679 11.3081C97.785 15.7121 106.86 23.1701 113.244 32.7388C119.629 42.3076 123.036 53.5574 123.036 65.0657C123.011 80.4899 116.881 95.2751 105.99 106.182C95.0989 117.088 80.3348 123.227 64.9326 123.253Z" fill="url(#paint0_linear_3443_10834)"/>
<path d="M117.099 77.86C124.168 49.0173 106.551 19.897 77.749 12.8179C48.9474 5.73875 19.8686 23.3816 12.7996 52.2243C5.73056 81.067 23.3483 110.187 52.1498 117.266C80.9514 124.346 110.03 106.703 117.099 77.86Z" fill="url(#paint1_linear_3443_10834)"/>
<path fill-rule="evenodd" clip-rule="evenodd" d="M55.0089 36.1231C56.712 36.9847 58.3754 37.9489 59.9795 38.9952C60.1776 39.0977 60.7122 39.467 60.1181 40.5544C59.2863 42.0519 58.4547 43.5085 57.623 44.8625C57.2665 45.4574 56.6922 45.6831 56.1575 45.4369C55.3851 45.0882 55.5238 44.2676 55.6228 43.9393C55.6427 43.7958 55.6822 43.6727 55.7416 43.5085L56.3159 41.6416L54.7911 42.1956C51.5829 43.3238 48.672 45.1292 46.2362 47.4884C40.4338 53.0685 37.7802 60.0027 38.3545 68.0445C38.4497 69.3652 38.7641 70.6669 39.0697 71.9314L39.1071 72.0861C39.2655 72.7426 39.4238 73.4195 39.5624 74.076C39.5822 74.1581 39.6021 74.2606 39.622 74.3632C39.6814 74.5888 39.7209 74.835 39.7407 75.0812C39.4041 75.5736 38.9288 75.9634 38.5922 76.0455C38.5129 76.0659 38.414 76.0865 38.3149 76.0659C38.2358 76.0455 38.1367 76.0044 38.0575 75.9634C37.8198 75.7787 37.6614 75.5121 37.602 75.2249L37.5261 74.8898C37.3925 74.2988 37.2568 73.6981 37.1069 73.1118L37.0886 73.0358C36.619 71.0902 36.1353 69.086 36.0375 67.1419C35.4236 55.4277 42.3944 44.6368 53.3851 40.2466L53.3858 40.2463C53.5439 40.1849 53.7024 40.1233 53.9792 40.0004L56.2367 39.0567L54.6722 38.2566C54.5311 38.1754 54.4024 38.1199 54.286 38.0697C54.2557 38.0567 54.2257 38.0437 54.197 38.0309C54.0782 37.9899 53.9791 37.9489 53.8801 37.8874C53.4643 37.4771 53.4049 37.0462 53.7218 36.5538C53.8603 36.3077 54.1376 36 54.5534 36C54.7118 36 54.8703 36.041 55.0089 36.1231ZM87.6671 75.7377C87.6867 75.7788 88.201 76.5789 88.6763 76.3327C89.0334 76.148 89.4092 75.9634 89.7654 75.7993L89.7924 75.7865C91.5046 74.9503 93.0988 74.1719 94.36 72.8656V72.3528L94.1424 72.1271C93.9247 71.881 93.6671 71.5937 93.4885 71.5527C93.3034 71.5004 93.0039 71.5518 92.6868 71.6062L92.5901 71.6229L92.5184 71.6348C92.2813 71.6758 92.0432 71.7168 91.7855 71.7578L90.7559 71.8604L90.875 70.8346C90.8945 70.7731 90.8945 70.6911 90.8945 70.609C90.914 70.4243 90.9345 70.2398 90.9736 70.0346C91.5484 66.2598 91.4293 62.8748 90.5774 59.6949C89.1125 54.1559 86.5771 49.6015 83.0723 46.155C79.5672 42.7084 74.9531 40.2466 69.3885 38.8926C68.5568 38.6874 67.923 38.708 67.5665 38.9132C67.4477 38.9952 67.2694 39.1388 67.1705 39.5901C67.0912 39.9184 66.9527 40.6159 68.9132 41.0878C78.9732 43.529 85.4883 49.8477 88.281 59.8386C89.1915 63.08 89.2706 66.4033 88.5377 69.9936L88.32 71.0193L87.3695 70.5474C87.1119 70.4243 86.9138 70.2192 86.7752 69.973C86.7677 69.9652 86.7631 69.9573 86.7594 69.9507C86.7528 69.9398 86.7482 69.932 86.7361 69.932C86.4785 69.6448 86.221 69.5012 85.9439 69.5012C85.7062 69.5216 85.4686 69.6037 85.2705 69.7268C84.7755 70.0346 84.6764 70.609 85.013 71.2245C85.7854 72.5784 86.6171 74.0144 87.6671 75.7377ZM61.2283 93.4217C70.2783 94.0371 78.0015 91.0215 84.1603 84.4361C84.9722 83.5539 85.1306 83.0205 85.1306 82.7333C85.1306 82.5898 85.0911 82.3846 84.794 82.0974L84.7818 82.0864C84.4807 81.8156 83.8828 81.2776 82.4176 82.8359C76.4965 89.093 69.209 91.8421 60.753 90.9804C56.0597 90.5086 51.8021 88.7443 47.782 85.5644L46.4948 84.5592L48.0791 84.2104C49.901 83.8001 49.8613 83.1436 49.8217 82.8564C49.8019 82.5282 49.7425 81.7487 47.9999 81.7487C46.4948 81.7281 44.9699 81.7281 43.4649 81.7692C42.2503 81.8091 42.1994 82.4714 42.1793 82.7334L42.1777 82.7539C42.0985 84.4156 42.1183 86.2619 42.1975 88.5186C42.2174 89.1751 42.7718 89.3598 43.2273 89.3802C43.861 89.4008 44.2571 89.1341 44.4353 88.4571C44.4894 88.2331 44.527 87.9581 44.5632 87.6941L44.5739 87.6159L44.7125 86.3235L46.8315 87.8827C51.2872 91.206 56.1191 93.073 61.2283 93.4217ZM48.2582 79.092H53.2586C53.5111 79.095 53.7588 79.0196 53.9705 78.8755C54.182 78.7313 54.3483 78.5248 54.448 78.2818C55.2152 78.6948 56.043 78.9709 56.897 79.0987L63.1442 79.7683C63.3295 79.7783 63.5153 79.7783 63.7005 79.7683C64.1778 79.7701 64.653 79.7048 65.1137 79.5741L73.8036 77.157C74.2684 77.0236 74.6853 76.7494 75.002 76.3689C75.3187 75.9884 75.5212 75.5185 75.5839 75.0181C75.6468 74.5177 75.5672 74.0091 75.3551 73.5558C75.1431 73.1026 74.808 72.7249 74.3918 72.4702C74.1135 72.3004 73.8054 72.1905 73.4859 72.1467C73.1665 72.1031 72.8419 72.1266 72.5311 72.2158L68.7713 73.267C68.8052 72.9916 68.7878 72.7119 68.7201 72.4434C68.6511 72.1728 68.5318 71.9192 68.3691 71.697C68.2063 71.4748 68.0033 71.2884 67.7717 71.1485C67.54 71.0085 67.2842 70.9178 67.0191 70.8816C66.7539 70.8452 66.4845 70.864 66.2263 70.937C64.308 71.4792 64.1482 71.2048 63.3041 69.705L63.1314 69.397C62.4717 68.3124 61.429 67.5453 60.2309 67.263C59.0329 66.9808 57.7769 67.2063 56.7371 67.8905C56.1241 68.3535 55.3742 68.5741 54.6206 68.5132L54.448 68.4596C54.3375 67.9606 54.07 67.5149 53.6884 67.1943C53.3068 66.8737 52.8334 66.6968 52.3442 66.692H48.2582C47.9217 66.7005 47.6011 66.8443 47.3629 67.0936C47.1248 67.3429 46.9875 67.6786 46.9794 68.0311V77.7194C46.9793 78.0778 47.1129 78.4219 47.352 78.6784C47.5909 78.9348 47.9162 79.0832 48.2582 79.092ZM57.4532 69.0488C58.2025 68.5591 59.1054 68.3971 59.9676 68.5974C60.8298 68.7977 61.5825 69.3446 62.0636 70.1201L62.2299 70.4079C63.2081 72.1488 63.8476 73.0192 66.5843 72.2493C66.6801 72.2224 66.7799 72.2156 66.8782 72.2292C66.9765 72.2427 67.0712 72.2765 67.157 72.3284C67.2428 72.3804 67.3179 72.4494 67.3783 72.5318C67.4385 72.6141 67.4827 72.7081 67.5084 72.8083C67.534 72.9086 67.5405 73.0131 67.5275 73.1159C67.5145 73.2188 67.4823 73.318 67.4328 73.4078C67.3832 73.4977 67.3172 73.5764 67.2386 73.6396C67.1599 73.7027 67.0701 73.749 66.9744 73.7758C66.9744 73.7758 65.0561 74.3449 64.4167 74.5257C64.2532 74.5713 64.1137 74.6828 64.0286 74.8359C63.9435 74.989 63.9197 75.1712 63.9627 75.3425C63.9842 75.428 64.0217 75.5082 64.0729 75.5785C64.1242 75.6487 64.1883 75.7076 64.2614 75.7519C64.3345 75.796 64.4152 75.8246 64.499 75.836C64.5827 75.8473 64.6677 75.8412 64.7492 75.8179L72.9019 73.5281C73.2021 73.4439 73.5218 73.4876 73.7914 73.6494C74.0609 73.8112 74.2584 74.078 74.3407 74.3918C74.4146 74.706 74.3676 75.038 74.2096 75.3161C74.0516 75.5943 73.7956 75.7962 73.4966 75.8782L64.7812 78.3086C64.2899 78.4479 63.7784 78.491 63.2721 78.4359L57.0248 77.7663C56.1584 77.6336 55.3246 77.3266 54.5694 76.8624V69.792C55.5851 69.8605 56.5952 69.5885 57.4532 69.0153V69.0488ZM48.2263 68.0378H52.3315C52.4532 68.0378 52.5737 68.0629 52.6862 68.1117C52.7987 68.1605 52.901 68.232 52.9871 68.3222C53.0731 68.4123 53.1415 68.5193 53.1881 68.6371C53.2347 68.7549 53.2586 68.8812 53.2586 69.0087V77.7529L48.2263 77.7194V68.0378ZM66.3202 64.8074C65.2746 65.6954 63.9719 66.1853 62.6257 66.1966C61.0621 66.1948 59.5628 65.5441 58.4565 64.3869C57.3502 63.2297 56.7271 61.6606 56.7238 60.0233C56.7297 59.0708 56.9488 58.1329 57.3632 57.2848C56.9567 57.3176 56.549 57.2392 56.1802 57.0572C55.8912 56.9085 55.6332 56.7012 55.4213 56.4471C55.2094 56.1931 55.0479 55.8975 54.9461 55.5775C54.7409 54.9315 54.7869 54.2267 55.074 53.6157C55.2161 53.3138 55.4142 53.0446 55.6569 52.824C55.8995 52.6032 56.1818 52.4354 56.4872 52.3302C56.7365 52.2097 63.7639 49.0628 66.5199 49.1967L72.8055 49.8663C73.6605 49.9935 74.4887 50.2719 75.2545 50.6899C75.3542 50.447 75.5204 50.2404 75.732 50.0962C75.9437 49.9521 76.1914 49.8767 76.4439 49.8797H81.4762C81.8183 49.8885 82.1435 50.0369 82.3825 50.2933C82.6214 50.5498 82.7552 50.894 82.7551 51.2523V60.9272C82.7552 61.2856 82.6214 61.6296 82.3825 61.8862C82.1435 62.1426 81.8183 62.291 81.4762 62.2998H77.3583C76.8682 62.2946 76.394 62.1168 76.0123 61.7948C75.6307 61.4729 75.3637 61.0257 75.2545 60.5254L75.0819 60.4786C74.3141 60.4043 73.5465 60.6231 72.9205 61.0946C72.179 61.5751 71.3244 61.8302 70.4524 61.8311C70.0484 61.8321 69.6462 61.7757 69.2567 61.6637C68.954 61.5765 68.6605 61.4576 68.3806 61.3088C68.0923 62.6858 67.3658 63.9194 66.3202 64.8074ZM59.3631 63.4396C60.2285 64.3458 61.4018 64.8556 62.6257 64.8575C63.781 64.8472 64.8911 64.3868 65.7399 63.5662C66.5886 62.7455 67.1151 61.6233 67.2168 60.4183C66.9627 60.1652 66.7373 59.8822 66.5455 59.5747C65.9891 58.6039 65.6694 58.6709 63.9046 59.5345L63.732 59.6149C63.9212 59.8043 64.0629 60.0399 64.1441 60.3005C64.2253 60.5612 64.2436 60.8388 64.1974 61.1087C64.1512 61.3786 64.0418 61.6323 63.8791 61.8471C63.7164 62.0619 63.5055 62.2313 63.2652 62.34C63.2652 62.5175 63.1977 62.6879 63.0778 62.8134C62.9579 62.9389 62.7953 63.0095 62.6257 63.0095C62.4561 63.0095 62.2935 62.9389 62.1735 62.8134C62.0536 62.6879 61.9863 62.5175 61.9863 62.34C61.8039 62.2581 61.637 62.1424 61.4939 61.9985C61.3735 61.8724 61.3058 61.7014 61.3058 61.5231C61.3058 61.3448 61.3735 61.1739 61.4939 61.0477C61.6144 60.9216 61.7776 60.8508 61.9479 60.8508C62.1182 60.8508 62.2815 60.9216 62.4019 61.0477C62.4302 61.0803 62.4648 61.106 62.5034 61.1233C62.542 61.1407 62.5837 61.1491 62.6257 61.1482C62.7104 61.1482 62.7918 61.1129 62.8518 61.0501C62.9117 60.9874 62.9454 60.9021 62.9454 60.8134C62.9454 60.7246 62.9117 60.6395 62.8518 60.5767C62.7918 60.5139 62.7104 60.4786 62.6257 60.4786C62.273 60.4739 61.932 60.3464 61.6563 60.1159C61.3807 59.8856 61.1863 59.5655 61.1038 59.2065C60.9253 58.9796 60.7965 58.7145 60.7266 58.4298C60.4241 57.3545 61.233 56.5326 61.6789 56.0796L61.6985 56.0596L62.1142 55.6713L59.2431 56.7492C58.448 57.6358 58.0065 58.8071 58.009 60.0233C58.0107 61.3049 58.4976 62.5334 59.3631 63.4396ZM81.4762 51.2523L76.4439 51.2188L76.4119 59.9898C76.4119 60.248 76.5094 60.4956 76.683 60.6787C76.8568 60.8618 77.0925 60.9656 77.3391 60.9674H81.4762V60.9339V51.2523ZM56.1616 55.149C56.261 55.4573 56.4721 55.7121 56.7494 55.8588C56.8891 55.9322 57.0419 55.9748 57.198 55.984C57.3542 55.9933 57.5105 55.9688 57.6573 55.9123L64.8509 53.2342C65.678 52.5517 66.6696 52.1229 67.7156 51.9955C67.8852 51.9955 68.0478 52.066 68.1677 52.1916C68.2876 52.3172 68.355 52.4875 68.355 52.665C68.355 52.8426 68.2876 53.0129 68.1677 53.1384C68.0478 53.2641 67.8852 53.3346 67.7156 53.3346C66.9199 53.4729 66.1702 53.8182 65.5351 54.3388L62.6001 57.017L62.5995 57.0177C62.3054 57.3123 61.8712 57.7471 61.9607 58.0817C61.9754 58.174 62.0085 58.2621 62.0577 58.3402C62.107 58.4184 62.1714 58.4849 62.2467 58.5354C62.3221 58.5859 62.4067 58.6193 62.495 58.6333C62.5835 58.6474 62.6737 58.642 62.76 58.6173L63.361 58.3227C64.9533 57.5393 66.4559 56.8162 67.6325 58.8784C68.1138 59.6556 68.8671 60.2039 69.7304 60.4055C70.5938 60.6071 71.4982 60.4458 72.2492 59.9564C73.1059 59.3796 74.1165 59.105 75.133 59.173V52.0758C74.376 51.6104 73.54 51.3034 72.6712 51.172L66.4303 50.5024C64.4417 50.4221 58.8978 52.6717 56.9411 53.5421C56.784 53.5972 56.639 53.6849 56.5148 53.7999C56.3906 53.9149 56.2899 54.055 56.2186 54.2117C56.0829 54.5042 56.0624 54.8409 56.1616 55.149ZM50.9443 68.5132C50.5862 68.5118 50.2357 68.6218 49.9372 68.8293C49.6389 69.0366 49.4059 69.3321 49.2679 69.6782C49.13 70.0243 49.0933 70.4055 49.1624 70.7735C49.2315 71.1415 49.4033 71.4798 49.6562 71.7455C49.909 72.0111 50.2314 72.1922 50.5826 72.2659C50.9338 72.3396 51.2979 72.3024 51.629 72.1592C51.96 72.016 52.243 71.7731 52.4421 71.4614C52.6413 71.1497 52.7476 70.783 52.7476 70.4079C52.7476 69.9066 52.5577 69.4257 52.2198 69.0705C51.8819 68.7153 51.4232 68.5149 50.9443 68.5132ZM50.9443 70.957C50.8389 70.9583 50.7353 70.9267 50.6472 70.8662C50.5589 70.8056 50.4899 70.7189 50.4489 70.617C50.408 70.5153 50.3969 70.403 50.4172 70.2946C50.4374 70.1861 50.4881 70.0865 50.5627 70.0084C50.6373 69.9303 50.7325 69.8772 50.8361 69.856C50.9396 69.8347 51.0468 69.8463 51.144 69.8892C51.2413 69.9321 51.3241 70.0044 51.3819 70.0968C51.4398 70.1891 51.4699 70.2975 51.4687 70.4079C51.4704 70.556 51.4163 70.6988 51.3182 70.8053C51.22 70.9118 51.0857 70.9736 50.9443 70.9771V70.957ZM79.6498 60.3915C79.3541 60.5998 79.0061 60.7117 78.6498 60.7129C78.4124 60.7139 78.1773 60.6657 77.9577 60.5711C77.7382 60.4767 77.5387 60.3378 77.3705 60.1623C77.2025 59.9869 77.069 59.7785 76.978 59.5489C76.887 59.3194 76.8402 59.0734 76.8402 58.8248C76.8402 58.4517 76.9458 58.0869 77.1436 57.7766C77.3415 57.4662 77.6227 57.2242 77.9518 57.0811C78.281 56.938 78.6432 56.9003 78.9928 56.9725C79.3424 57.0449 79.6637 57.224 79.9162 57.4874C80.1686 57.7508 80.3409 58.0865 80.4112 58.4524C80.4814 58.8182 80.4466 59.1977 80.3111 59.5428C80.1757 59.8879 79.9455 60.1832 79.6498 60.3915ZM78.9393 58.3716C78.8539 58.3104 78.7532 58.2771 78.6498 58.2758C78.5106 58.2775 78.3775 58.3357 78.2785 58.4381C78.1795 58.5405 78.1223 58.6792 78.1191 58.8248C78.1191 58.9331 78.1497 59.039 78.207 59.1292C78.2643 59.2193 78.3458 59.2897 78.4412 59.3314C78.5367 59.3731 78.6418 59.3844 78.7433 59.3638C78.8449 59.3432 78.9383 59.2915 79.0119 59.2154C79.0854 59.1392 79.1358 59.042 79.1569 58.936C79.1778 58.8299 79.1683 58.7198 79.1296 58.6194C79.0909 58.519 79.0247 58.4327 78.9393 58.3716Z" fill="url(#paint2_linear_3443_10834)"/>
<defs>
<linearGradient id="paint0_linear_3443_10834" x1="23.8403" y1="23.85" x2="106.158" y2="106.051" gradientUnits="userSpaceOnUse">
<stop stop-color="#FCFCFC"/>
<stop offset="1" stop-color="#E6E6E6"/>
</linearGradient>
<linearGradient id="paint1_linear_3443_10834" x1="101.217" y1="101.331" x2="4.19025" y2="4.45908" gradientUnits="userSpaceOnUse">
<stop stop-color="#FCFCFC"/>
<stop offset="1" stop-color="#E6E6E6"/>
</linearGradient>
<linearGradient id="paint2_linear_3443_10834" x1="35.2163" y1="38.3665" x2="100.603" y2="47.0674" gradientUnits="userSpaceOnUse">
<stop stop-color="#6A00A7"/>
<stop offset="1" stop-color="#00CDCD"/>
</linearGradient>
</defs>
</svg>
