<svg width="130" height="131" viewBox="0 0 130 131" fill="none" xmlns="http://www.w3.org/2000/svg">
<path d="M64.9326 123.253C53.4407 123.253 42.207 119.84 32.6518 113.446C23.0967 107.053 15.6494 97.9651 11.2516 87.3328C6.85391 76.7006 5.70326 65.0012 7.94521 53.714C10.1872 42.4269 15.721 32.059 23.847 23.9214C31.9729 15.7838 42.326 10.2421 53.5971 7.99693C64.8681 5.75178 76.5508 6.90407 87.1679 11.3081C97.785 15.7121 106.86 23.1701 113.244 32.7388C119.629 42.3076 123.036 53.5574 123.036 65.0657C123.011 80.4899 116.881 95.2751 105.99 106.182C95.0989 117.088 80.3348 123.227 64.9326 123.253Z" fill="url(#paint0_linear_3443_10835)"/>
<path d="M117.099 77.8601C124.168 49.0174 106.551 19.897 77.749 12.8179C48.9474 5.73875 19.8686 23.3816 12.7996 52.2243C5.73056 81.067 23.3483 110.187 52.1498 117.267C80.9514 124.346 110.03 106.703 117.099 77.8601Z" fill="url(#paint1_linear_3443_10835)"/>
<path fill-rule="evenodd" clip-rule="evenodd" d="M59.2426 40.865C57.621 39.8642 55.9393 38.9419 54.2175 38.1177C54.0774 38.0392 53.9172 38 53.757 38C53.3365 38 53.0563 38.2943 52.9161 38.5298C52.5959 39.0008 52.6559 39.4129 53.0764 39.8053C53.1764 39.8642 53.2766 39.9034 53.3966 39.9426C53.4258 39.9549 53.4558 39.9671 53.4865 39.9797H53.4867C53.6042 40.0277 53.7344 40.0808 53.8771 40.1585L55.4588 40.9238L53.1765 41.8265C52.8966 41.9441 52.7365 42.0029 52.5765 42.0617L52.5758 42.062C41.4645 46.2613 34.4173 56.5831 35.0379 67.7879C35.1367 69.6475 35.6257 71.5645 36.1004 73.4255L36.1191 73.4983C36.2704 74.059 36.4077 74.6337 36.5428 75.1988V75.1989L36.6196 75.5195C36.6796 75.7942 36.8398 76.0492 37.08 76.2258C37.1601 76.2651 37.2602 76.3044 37.3403 76.3239C37.4404 76.3436 37.5405 76.3239 37.6205 76.3044C37.9609 76.2258 38.4414 75.853 38.7818 75.3821C38.7617 75.1466 38.7217 74.9111 38.6617 74.6952C38.6417 74.5971 38.6215 74.499 38.6015 74.4205C38.4614 73.7926 38.3013 73.1451 38.1411 72.5171L38.1034 72.3692C37.7945 71.1596 37.4765 69.9146 37.3804 68.6513C36.7997 60.9591 39.4825 54.3264 45.3485 48.9889C47.811 46.7323 50.7539 45.0054 53.9973 43.9262L55.5389 43.3963L54.9583 45.182C54.8982 45.3391 54.8581 45.4568 54.8381 45.5941C54.738 45.9081 54.5978 46.6931 55.3787 47.0266C55.9192 47.2621 56.4999 47.0462 56.8602 46.4771C57.7011 45.182 58.5419 43.7888 59.3827 42.3564C59.9834 41.3163 59.4429 40.9631 59.2426 40.865ZM88.2548 76.5791C87.7743 76.8146 87.2534 76.0493 87.2337 76.0101C86.1721 74.3617 85.3316 72.9881 84.5508 71.693C84.2104 71.1043 84.3106 70.5548 84.8111 70.2604C85.0113 70.1427 85.2515 70.0642 85.4918 70.0446C85.7721 70.0446 86.032 70.182 86.2924 70.4567C86.3047 70.4567 86.3094 70.4643 86.3159 70.4746C86.3206 70.481 86.3253 70.4885 86.3329 70.4959C86.473 70.7314 86.6733 70.9277 86.9328 71.0454L87.8947 71.4968L88.1147 70.5156C88.8547 67.0815 88.7748 63.9026 87.8543 60.8021C85.0312 51.2457 78.4446 45.2018 68.2742 42.8666C66.2922 42.4152 66.4323 41.7481 66.5124 41.4341C66.6125 41.0024 66.7927 40.8651 66.9128 40.7865C67.2732 40.5903 67.9139 40.5707 68.7547 40.7669C74.3805 42.062 79.0451 44.4168 82.5887 47.7135C86.1326 51.0102 88.6949 55.3665 90.1768 60.6647C91.0371 63.7064 91.1575 66.9441 90.5773 70.5548C90.5369 70.7511 90.5172 70.9277 90.4965 71.1043C90.4965 71.1828 90.4965 71.2613 90.4767 71.3202L90.3564 72.3013L91.3982 72.2032C91.6577 72.1639 91.8985 72.1246 92.1382 72.0854C92.1617 72.0818 92.1852 72.0781 92.2087 72.0743C92.2426 72.069 92.2755 72.0636 92.3084 72.0582L92.3094 72.0581C92.6291 72.0061 92.9328 71.9569 93.1199 72.0069C93.2995 72.0462 93.5599 72.3209 93.78 72.5564L94 72.7722V73.2628C92.7259 74.5124 91.1143 75.2568 89.3822 76.0567L89.3559 76.069C88.9958 76.2259 88.615 76.4025 88.2548 76.5791ZM83.6888 84.3302C77.4624 90.6293 69.6545 93.5138 60.5051 92.9251C55.3398 92.5916 50.4549 90.8058 45.9503 87.6269L43.8081 86.1355L43.668 87.3717L43.6572 87.4465V87.4466C43.6206 87.6991 43.5825 87.9621 43.5279 88.1763C43.3476 88.8239 42.9473 89.079 42.3066 89.0593C41.8461 89.0398 41.2856 88.8632 41.2656 88.2352C41.1854 86.0766 41.1654 84.3106 41.2455 82.7211L41.2471 82.7016C41.2674 82.4509 41.3188 81.8174 42.5468 81.7792C44.0684 81.7399 45.61 81.7399 47.1315 81.7596C48.8933 81.7596 48.9534 82.5053 48.9734 82.8192C49.0135 83.0939 49.0535 83.7219 47.2116 84.1143L45.6099 84.4479L46.9113 85.4095C50.9755 88.451 55.2798 90.1386 60.0246 90.59C68.5734 91.4142 75.9409 88.7846 81.927 82.7996C83.4083 81.309 84.0128 81.8236 84.3172 82.0826L84.3295 82.0932C84.6298 82.3679 84.6698 82.5642 84.6698 82.7015C84.6698 82.9762 84.5096 83.4864 83.6888 84.3302ZM66.417 66.8837C65.0561 66.8729 63.7391 66.4043 62.682 65.5549C61.6249 64.7056 60.8905 63.5256 60.599 62.2085C60.316 62.3507 60.0193 62.4644 59.7133 62.5479C59.3195 62.655 58.9128 62.709 58.5045 62.708C57.6229 62.7071 56.7588 62.4631 56.0091 62.0035C55.3764 61.5526 54.6004 61.3432 53.8242 61.4143L53.6497 61.4591C53.5393 61.9377 53.2693 62.3654 52.8834 62.6733C52.4976 62.9813 52.0183 63.1514 51.5228 63.1563H47.3597C47.0138 63.1479 46.685 63.006 46.4435 62.7607C46.2018 62.5153 46.0667 62.1862 46.0668 61.8434V52.5892C46.0667 52.2465 46.2018 51.9172 46.4435 51.6719C46.685 51.4266 47.0138 51.2846 47.3597 51.2763H52.4472C52.7025 51.2734 52.9529 51.3455 53.1668 51.4833C53.3808 51.6213 53.5489 51.8189 53.6497 52.0512C54.4239 51.6514 55.2611 51.3851 56.1255 51.2634L62.4801 50.623C65.2663 50.4949 72.3709 53.505 72.623 53.6202C72.9316 53.7208 73.217 53.8813 73.4623 54.0925C73.7077 54.3036 73.908 54.5611 74.0516 54.8498C74.3419 55.4343 74.3883 56.1083 74.1809 56.7263C74.078 57.0324 73.9147 57.3152 73.7005 57.5581C73.4863 57.8011 73.2255 57.9995 72.9333 58.1417C72.5603 58.3157 72.1483 58.3907 71.7373 58.3594C72.1563 59.1706 72.3777 60.0677 72.3837 60.9788C72.3804 62.5449 71.7504 64.0458 70.632 65.1527C69.5136 66.2596 67.9978 66.882 66.417 66.8837ZM66.417 65.6028C67.6544 65.601 68.8405 65.1134 69.7155 64.2466C70.5904 63.3798 71.0827 62.2046 71.0844 60.9788C71.087 59.8155 70.6406 58.6951 69.8368 57.8471L66.9342 56.816L67.3544 57.1874L67.3742 57.2065C67.825 57.6399 68.6427 58.426 68.337 59.4546C68.2981 59.6042 68.2413 59.7483 68.1679 59.8837C68.1231 59.9665 68.0676 60.0428 68.0119 60.1193V60.1194C67.993 60.1453 67.9741 60.1713 67.9556 60.1975C67.9102 60.2618 67.874 60.3245 67.8398 60.3837C67.771 60.5026 67.7105 60.6073 67.6007 60.6823C67.523 60.728 67.3854 60.7797 67.1469 60.8015C67.1167 60.8027 67.0849 60.8031 67.0514 60.803C67.0514 60.803 67.0604 60.805 66.9734 60.8064C66.9003 60.8075 66.7839 60.8072 66.7096 60.803L66.6718 60.8006C66.622 60.7975 66.5567 60.7933 66.5118 60.7937C66.1968 60.7659 65.7994 60.7035 65.2986 60.5881L65.1241 60.5113C63.3399 59.6852 63.0167 59.6211 62.4543 60.5498C62.2603 60.8438 62.0325 61.1145 61.7755 61.3567C61.8782 62.5093 62.4106 63.5827 63.2687 64.3677C64.1268 65.1526 65.2491 65.5929 66.417 65.6028ZM66.5118 60.7937C66.7782 60.8173 66.9856 60.8162 67.1469 60.8015C67.3649 60.7928 67.5025 60.7495 67.6007 60.6823C67.6763 60.638 67.6951 60.5992 67.6951 60.5992C67.6951 60.5992 67.7729 60.8274 67.7262 61.0855C67.6795 61.3436 67.5689 61.5863 67.4044 61.7918C67.24 61.9973 67.0267 62.1593 66.7837 62.2632C66.7837 62.4331 66.7156 62.596 66.5944 62.7161C66.4732 62.8361 66.3087 62.9037 66.1373 62.9037C65.9658 62.9037 65.8014 62.8361 65.6801 62.7161C65.5589 62.596 65.4908 62.4331 65.4908 62.2632C65.3065 62.1849 65.1378 62.0742 64.993 61.9365C64.8713 61.816 64.8029 61.6524 64.8029 61.4819C64.8029 61.3113 64.8713 61.1478 64.993 61.0272C65.1148 60.9065 65.2798 60.8388 65.452 60.8388C65.6242 60.8388 65.7893 60.9065 65.911 61.0272C65.9396 61.0583 65.9746 61.0829 66.0136 61.0995C66.0527 61.116 66.0948 61.1241 66.1373 61.1232C66.223 61.1232 66.3052 61.0895 66.3658 61.0294C66.4264 60.9694 66.4605 60.8879 66.4605 60.803C66.4605 60.7966 66.4814 60.7941 66.5118 60.7937ZM52.4472 52.5571L47.3597 52.5892V61.8498V61.8819H51.5422C51.7914 61.8802 52.0298 61.7809 52.2054 61.6058C52.381 61.4305 52.4796 61.1937 52.4796 60.9468L52.4472 52.5571ZM72.3579 56.9954C72.6382 56.8551 72.8516 56.6113 72.952 56.3165C73.0524 56.0217 73.0317 55.6997 72.8944 55.4198C72.8224 55.27 72.7206 55.136 72.595 55.026C72.4695 54.916 72.3229 54.8321 72.164 54.7794C70.1858 53.9469 64.5811 51.795 62.5707 51.8719L56.2613 52.5123C55.383 52.6381 54.5378 52.9317 53.7725 53.3769V60.1655C54.8001 60.1005 55.8218 60.3631 56.6879 60.9148C57.4472 61.3829 58.3616 61.5372 59.2343 61.3444C60.1072 61.1515 60.8687 60.6271 61.3553 59.8837C62.5448 57.9112 64.0639 58.6028 65.6736 59.3522L66.2813 59.634C66.3685 59.6575 66.4597 59.6627 66.5491 59.6492C66.6385 59.6358 66.724 59.6039 66.8002 59.5556C66.8764 59.5073 66.9414 59.4437 66.9913 59.3689C67.041 59.2942 67.0745 59.2099 67.0893 59.1216C67.1798 58.8016 66.7409 58.3857 66.4435 58.1039L66.4429 58.1032L63.4757 55.5415C62.8337 55.0435 62.0757 54.7132 61.2713 54.5809C61.0999 54.5809 60.9354 54.5135 60.8142 54.3933C60.6929 54.2732 60.6248 54.1103 60.6248 53.9405C60.6248 53.7706 60.6929 53.6077 60.8142 53.4876C60.9354 53.3675 61.0999 53.3 61.2713 53.3C62.3287 53.4219 63.3313 53.832 64.1674 54.4849L71.44 57.0466C71.5883 57.1006 71.7464 57.124 71.9043 57.1152C72.0622 57.1063 72.2166 57.0656 72.3579 56.9954ZM80.9422 79.2184H75.8869C75.6317 79.2213 75.3813 79.1492 75.1673 79.0113C74.9534 78.8734 74.7853 78.6759 74.6845 78.4435C73.9088 78.8385 73.072 79.1026 72.2087 79.2249L65.8928 79.8653C65.7054 79.8749 65.5177 79.8749 65.3304 79.8653C64.848 79.8671 64.3674 79.8046 63.9017 79.6795L55.1165 77.3675C54.6466 77.2399 54.2251 76.9777 53.9049 76.6137C53.5847 76.2498 53.3801 75.8003 53.3166 75.3217C53.253 74.8431 53.3335 74.3565 53.5479 73.923C53.7623 73.4894 54.1011 73.1282 54.5218 72.8845C54.8032 72.7221 55.1145 72.617 55.4376 72.5751C55.7606 72.5334 56.0888 72.5558 56.4029 72.6412L60.2041 73.6467C60.1697 73.3832 60.1873 73.1157 60.2558 72.8589C60.3255 72.6001 60.4461 72.3575 60.6106 72.1449C60.7752 71.9325 60.9805 71.7542 61.2146 71.6203C61.4488 71.4864 61.7073 71.3996 61.9754 71.365C62.2435 71.3302 62.5159 71.3482 62.7769 71.418C64.7162 71.9367 64.8779 71.6741 65.7312 70.2396L65.9057 69.9449C66.5726 68.9076 67.6268 68.1738 68.8381 67.9037C70.0493 67.6338 71.319 67.8495 72.3702 68.5039C72.99 68.9469 73.7481 69.1579 74.51 69.0995L74.6845 69.0483C74.7962 68.571 75.0667 68.1447 75.4524 67.8381C75.8382 67.5314 76.3168 67.3621 76.8114 67.3576H80.9422C81.2825 67.3657 81.6066 67.5033 81.8473 67.7417C82.088 67.9802 82.2269 68.3013 82.2351 68.6384V77.9055C82.2352 78.2483 82.1 78.5774 81.8584 78.8228C81.6168 79.0681 81.288 79.21 80.9422 79.2184ZM71.6462 69.6119C70.8888 69.1435 69.9759 68.9885 69.1043 69.1801C68.2325 69.3717 67.4717 69.8948 66.9853 70.6366L66.8172 70.9119C65.8281 72.5771 65.1817 73.4097 62.4149 72.6732C62.3181 72.6475 62.2172 72.641 62.1179 72.654C62.0185 72.667 61.9228 72.6992 61.836 72.7489C61.7493 72.7986 61.6733 72.8647 61.6123 72.9435C61.5514 73.0222 61.5066 73.1121 61.4808 73.2079C61.4549 73.3039 61.4483 73.4038 61.4614 73.5022C61.4746 73.6006 61.5071 73.6955 61.5572 73.7814C61.6073 73.8674 61.674 73.9426 61.7536 74.0031C61.8331 74.0635 61.9238 74.1077 62.0206 74.1334C62.0206 74.1334 63.96 74.6777 64.6064 74.8507C64.7716 74.8943 64.9128 75.001 64.9988 75.1474C65.0848 75.2938 65.1087 75.4681 65.0654 75.632C65.0436 75.7138 65.0057 75.7904 64.9539 75.8577C64.9021 75.9249 64.8373 75.9812 64.7634 76.0235C64.6895 76.0657 64.6078 76.0931 64.5232 76.104C64.4386 76.1148 64.3525 76.1089 64.2702 76.0867L56.0279 73.8964C55.7245 73.8159 55.4013 73.8577 55.1288 74.0125C54.8563 74.1672 54.6567 74.4225 54.5735 74.7226C54.4987 75.0231 54.5463 75.3407 54.706 75.6067C54.8656 75.8728 55.1246 76.0659 55.4268 76.1443L64.2379 78.4691C64.7346 78.6023 65.2517 78.6436 65.7635 78.5908L72.0794 77.9504C72.9553 77.8234 73.7982 77.5298 74.5617 77.0858V70.3228C73.5348 70.3883 72.5137 70.1282 71.6462 69.5798V69.6119ZM80.9745 68.6449H76.8243C76.7012 68.6449 76.5793 68.6689 76.4655 68.7156C76.3519 68.7622 76.2485 68.8306 76.1615 68.9169C76.0745 69.003 76.0054 69.1054 75.9583 69.2181C75.9111 69.3308 75.8869 69.4516 75.8869 69.5735V77.9376L80.9745 77.9055V68.6449ZM79.2447 69.4019C78.943 69.2035 78.5886 69.0982 78.2265 69.0995C77.7425 69.1012 77.2788 69.2929 76.9371 69.6327C76.5954 69.9724 76.4036 70.4324 76.4036 70.9119C76.4036 71.2707 76.5111 71.6214 76.7124 71.9196C76.9137 72.2178 77.1997 72.4501 77.5345 72.5871C77.8691 72.7241 78.2372 72.7596 78.5923 72.6892C78.9473 72.6186 79.2733 72.4454 79.5289 72.1913C79.7845 71.9372 79.9583 71.6136 80.0281 71.2617C80.098 70.9096 80.0608 70.545 79.9214 70.2139C79.7819 69.8829 79.5464 69.6003 79.2447 69.4019ZM78.527 71.3502C78.4378 71.4082 78.3332 71.4384 78.2265 71.4372V71.4563C78.0837 71.453 77.9479 71.3939 77.8486 71.292C77.7494 71.1901 77.6947 71.0535 77.6965 70.9119C77.6952 70.8063 77.7257 70.7026 77.7842 70.6143C77.8427 70.5259 77.9264 70.4568 78.0247 70.4157C78.123 70.3747 78.2314 70.3637 78.3361 70.384C78.4408 70.4043 78.537 70.455 78.6124 70.5297C78.6878 70.6045 78.7391 70.6998 78.7596 70.8035C78.7801 70.9072 78.7689 71.0146 78.7274 71.112C78.686 71.2094 78.6163 71.2923 78.527 71.3502ZM50.2171 61.6384C49.8568 61.6372 49.505 61.5302 49.2061 61.331C48.9071 61.1318 48.6745 60.8493 48.5375 60.5192C48.4006 60.1891 48.3653 59.8261 48.4364 59.4762C48.5075 59.1263 48.6816 58.8051 48.9368 58.5532C49.192 58.3012 49.5169 58.1299 49.8703 58.0607C50.2238 57.9916 50.59 58.0277 50.9227 58.1645C51.2554 58.3014 51.5397 58.5329 51.7398 58.8298C51.9398 59.1266 52.0466 59.4755 52.0466 59.8325C52.0466 60.0702 51.9993 60.3055 51.9072 60.5251C51.8152 60.7446 51.6803 60.944 51.5103 61.1118C51.3404 61.2796 51.1387 61.4125 50.9167 61.5028C50.6948 61.5933 50.4571 61.6394 50.2171 61.6384ZM50.2171 59.3073C50.1126 59.3086 50.0107 59.3404 49.9244 59.3989C49.8381 59.4573 49.7711 59.5399 49.732 59.6359C49.6929 59.732 49.6833 59.8373 49.7045 59.9388C49.7256 60.0402 49.7767 60.1332 49.8511 60.206C49.9254 60.2789 50.0199 60.3282 50.1225 60.348C50.2252 60.3677 50.3315 60.3569 50.4279 60.317C50.5244 60.2771 50.6068 60.2097 50.6648 60.1236C50.7227 60.0373 50.7537 59.9361 50.7537 59.8325C50.7504 59.6931 50.6925 59.5605 50.5925 59.4626C50.4923 59.3646 50.3578 59.3089 50.2171 59.3073Z" fill="url(#paint2_linear_3443_10835)"/>
<defs>
<linearGradient id="paint0_linear_3443_10835" x1="23.8403" y1="23.85" x2="106.158" y2="106.051" gradientUnits="userSpaceOnUse">
<stop stop-color="#FCFCFC"/>
<stop offset="1" stop-color="#E6E6E6"/>
</linearGradient>
<linearGradient id="paint1_linear_3443_10835" x1="101.217" y1="101.331" x2="4.19025" y2="4.45909" gradientUnits="userSpaceOnUse">
<stop stop-color="#FCFCFC"/>
<stop offset="1" stop-color="#E6E6E6"/>
</linearGradient>
<linearGradient id="paint2_linear_3443_10835" x1="34.2077" y1="40.2636" x2="100.177" y2="49.5417" gradientUnits="userSpaceOnUse">
<stop stop-color="#6A00A7"/>
<stop offset="1" stop-color="#00CDCD"/>
</linearGradient>
</defs>
</svg>
