<svg width="130" height="131" viewBox="0 0 130 131" fill="none" xmlns="http://www.w3.org/2000/svg">
<path d="M64.9326 123.253C53.4407 123.253 42.207 119.84 32.6518 113.446C23.0967 107.053 15.6494 97.9651 11.2516 87.3328C6.85391 76.7006 5.70326 65.0012 7.94521 53.714C10.1872 42.4269 15.721 32.059 23.847 23.9214C31.9729 15.7838 42.326 10.2421 53.5971 7.99693C64.8681 5.75178 76.5508 6.90407 87.1679 11.3081C97.785 15.7121 106.86 23.1701 113.244 32.7388C119.629 42.3076 123.036 53.5574 123.036 65.0657C123.011 80.4899 116.881 95.2751 105.99 106.182C95.0989 117.088 80.3348 123.227 64.9326 123.253Z" fill="url(#paint0_linear_3443_10836)"/>
<path d="M117.099 77.8601C124.168 49.0174 106.551 19.897 77.749 12.8179C48.9474 5.73875 19.8686 23.3816 12.7996 52.2243C5.73056 81.067 23.3483 110.187 52.1498 117.267C80.9514 124.346 110.03 106.703 117.099 77.8601Z" fill="url(#paint1_linear_3443_10836)"/>
<path fill-rule="evenodd" clip-rule="evenodd" d="M92.7115 86.5197L94.332 92.2681L94.3168 92.2833C94.4108 92.5723 94.3481 92.8765 94.161 93.1198C93.9739 93.3631 93.6775 93.5 93.3812 93.5H73.927C73.6152 93.5 73.3346 93.3631 73.1476 93.1198C72.976 92.8765 72.9137 92.5723 72.9917 92.2833L74.6129 86.5349C74.6441 86.4588 74.7064 86.3371 74.7064 86.3371L74.2388 84.9685C73.7399 83.4933 72.5084 82.444 71.0119 82.1094V84.862C71.0119 85.3943 70.591 85.8201 70.0454 85.8201H36.9665C36.4365 85.8201 36 85.3943 36 84.862V73.3651C36 72.8328 36.4209 72.407 36.9665 72.407H49.6244V68.5747H42.0951C40.3336 68.5747 38.915 67.1604 38.915 65.4419V46.7974C38.915 45.0637 40.3492 43.6646 42.0951 43.6646H64.9012C66.6627 43.6646 68.0812 45.0789 68.0812 46.7974V48.455H70.0299V41.7484H66.1327C65.6027 41.7484 65.1662 41.3226 65.1662 40.7904V36.9581C65.1662 36.4258 65.5871 36 66.1327 36H75.86C76.39 36 76.8264 36.4258 76.8264 36.9581V40.7904C76.8264 41.3226 76.4056 41.7484 75.86 41.7484H71.9628V49.4131C71.9628 49.9454 71.5419 50.3712 70.9963 50.3712H68.0812V57.0777H72.9449V54.2035C72.9449 52.6219 74.2543 51.3292 75.86 51.3292H85.5872C86.4601 51.3292 87.224 51.7095 87.7542 52.2874H91.433C91.963 52.2874 92.399 52.7131 92.399 53.2454V62.8262C92.399 63.3585 91.9782 63.7843 91.433 63.7843H87.816L87.5358 64.864V69.5328C87.5358 71.1143 86.2264 72.407 84.6208 72.407H76.842C75.2364 72.407 73.927 71.1143 73.927 69.5328V64.864L73.4126 62.8262H68.0968V65.4419C68.0968 67.1755 66.6627 68.5747 64.9168 68.5747H57.3875V72.407H70.0299C70.5599 72.407 70.9963 72.8328 70.9963 73.3651V80.1477C73.319 80.4975 75.2988 82.1094 76.0626 84.3601L76.5614 85.8201H77.8085V80.0716C77.8085 77.9578 79.5544 76.2393 81.7057 76.2393H85.6028C87.7542 76.2393 89.5001 77.9578 89.5001 80.0716V85.8201H91.7759C92.2119 85.8201 92.6023 86.109 92.7115 86.5197ZM88.5331 60.9253C88.5331 61.0013 88.5027 61.1534 88.5027 61.1534L88.3156 61.8833H90.4822V54.2187H88.5331V60.9253ZM75.8755 53.2606C75.3455 53.2606 74.9091 53.6865 74.9091 54.2187H74.8935V60.8036L75.8444 64.5142C75.8755 64.5903 75.8755 64.6663 75.8755 64.7423V69.5328C75.8755 70.065 76.312 70.4908 76.842 70.4908H84.6208C85.1508 70.4908 85.5872 70.065 85.5872 69.5328V64.7423C85.5872 64.6663 85.6184 64.5142 85.6184 64.5142L86.5693 60.8036V54.2187C86.5693 53.6865 86.1328 53.2606 85.6028 53.2606H75.8755ZM67.1303 37.9466V39.8627H74.9091V37.9466H67.1303ZM72.9604 59.0091H68.0968V60.9253H72.9604V59.0091ZM40.8636 65.4571C40.8636 66.1262 41.4092 66.6737 42.0951 66.6737H64.9324C65.6183 66.6737 66.1639 66.1262 66.1639 65.4571V46.8126C66.1639 46.1434 65.6183 45.596 64.9324 45.596H42.0951C41.4092 45.596 40.8636 46.1434 40.8636 46.8126V65.4571ZM55.4545 72.4222V68.5899H51.5574V72.4222H55.4545ZM37.9485 83.9039H69.0634V78.1555H37.9485V83.9039ZM37.9485 76.2393H69.0634V74.3231H37.9485V76.2393ZM81.7212 78.1555C80.6456 78.1555 79.7727 79.0223 79.7727 80.0716H79.7883V87.7362H87.5671V80.0716C87.5671 79.0071 86.694 78.1555 85.6184 78.1555H81.7212ZM76.2964 87.7362L75.2208 91.5686H92.0875L91.0122 87.7362H89.4839V88.6944C89.4839 89.2267 89.0631 89.6524 88.5179 89.6524H78.7906C78.2606 89.6524 77.8241 89.2267 77.8241 88.6944V87.7362H76.2964ZM64.1997 63.7994V48.4854C64.1997 47.9531 63.7633 47.5273 63.2333 47.5273H43.7787C43.2331 47.5273 42.8122 47.9531 42.8122 48.4854V63.7994C42.8122 64.3317 43.2487 64.7575 43.7787 64.7575H63.2333C63.7789 64.7575 64.1997 64.3317 64.1997 63.7994ZM62.2511 62.8414H44.7452V49.4283H62.2511V62.8414ZM49.6077 80.0716H57.3864V81.9877H49.6077V80.0716ZM48.6418 51.3444H46.6933V53.2606H48.6418V51.3444ZM46.6933 55.1768H48.6418V57.0929H46.6933V55.1768ZM48.6418 59.0091H46.6933V60.9253H48.6418V59.0091ZM50.591 51.3444H52.5395V53.2606H50.591V51.3444ZM52.5395 55.1768H50.591V57.0929H52.5395V55.1768ZM50.591 59.0091H52.5395V60.9253H50.591V59.0091ZM56.4206 51.3444H54.472V53.2606H56.4206V51.3444ZM54.472 55.1768H56.4206V57.0929H54.472V55.1768ZM56.4206 59.0091H54.472V60.9253H56.4206V59.0091ZM58.3679 51.3444H60.3165V60.9252H58.3679V51.3444ZM83.6695 79.1136C82.0638 79.1136 80.7545 80.4062 80.7545 81.9878C80.7545 83.5694 82.0638 84.8621 83.6695 84.8621C85.2751 84.8621 86.5846 83.5694 86.5846 81.9878C86.5846 80.4062 85.2751 79.1136 83.6695 79.1136ZM83.6695 82.9459C83.1395 82.9459 82.703 82.5201 82.703 81.9878C82.703 81.4555 83.1395 81.0298 83.6695 81.0298C84.1995 81.0298 84.6359 81.4555 84.6359 81.9878C84.6359 82.5201 84.1995 82.9459 83.6695 82.9459ZM83.6533 60.9253H77.8232C77.2932 60.9253 76.8566 60.4994 76.8566 59.9671V56.1348C76.8566 55.6026 77.2776 55.1768 77.8232 55.1768H83.6533C84.1833 55.1768 84.6198 55.6026 84.6198 56.1348V59.9671C84.6198 60.4994 84.1989 60.9253 83.6533 60.9253ZM82.6869 57.0929H78.7897V59.0091H82.6869V57.0929ZM77.8232 62.8415H83.6533V64.7576H77.8232V62.8415ZM83.6533 66.6586H77.8232V68.5747H83.6533V66.6586Z" fill="url(#paint2_linear_3443_10836)"/>
<defs>
<linearGradient id="paint0_linear_3443_10836" x1="23.8403" y1="23.85" x2="106.158" y2="106.051" gradientUnits="userSpaceOnUse">
<stop stop-color="#FCFCFC"/>
<stop offset="1" stop-color="#E6E6E6"/>
</linearGradient>
<linearGradient id="paint1_linear_3443_10836" x1="101.217" y1="101.331" x2="4.19025" y2="4.45909" gradientUnits="userSpaceOnUse">
<stop stop-color="#FCFCFC"/>
<stop offset="1" stop-color="#E6E6E6"/>
</linearGradient>
<linearGradient id="paint2_linear_3443_10836" x1="35.2163" y1="38.3665" x2="100.603" y2="47.0674" gradientUnits="userSpaceOnUse">
<stop stop-color="#6A00A7"/>
<stop offset="1" stop-color="#00CDCD"/>
</linearGradient>
</defs>
</svg>
